<mxfile host="65bd71144e">
    <diagram name="Page-1" id="133174158996928">
        <mxGraphModel dx="1896" dy="1595" grid="1" gridSize="10" guides="1" tooltips="1" connect="1" arrows="1" fold="1" page="1" pageScale="1" pageWidth="850" pageHeight="1100" math="1" shadow="0">
            <root>
                <mxCell id="0"/>
                <mxCell id="1" parent="0"/>
                <mxCell id="133174158997840" value="" style="whiteSpace=wrap;rounded=0;fillColor=#dae8fc;strokeColor=#6c8ebf;dashed=0;inherit=default;html=1;strokeWidth=0;" parent="1" vertex="1">
                    <mxGeometry y="20" width="120" height="20" as="geometry"/>
                </mxCell>
                <mxCell id="133174160021344" value="" style="whiteSpace=wrap;rounded=0;fillColor=none;strokeColor=none;dashed=0;inherit=default;html=1;strokeWidth=0;" parent="1" vertex="1">
                    <mxGeometry as="geometry"/>
                </mxCell>
                <mxCell id="133174158998224" value="" style="whiteSpace=wrap;rounded=0;fillColor=none;strokeColor=none;dashed=0;inherit=default;html=1;strokeWidth=0;" parent="1" vertex="1">
                    <mxGeometry y="40" as="geometry"/>
                </mxCell>
                <mxCell id="133174158998368" style="edgeStyle=orthogonalEdgeStyle;orthogonalLoop=1;rounded=0;jettySize=auto;" parent="1" source="133174158998224" target="133174160021344" edge="1">
                    <mxGeometry relative="1" as="geometry"/>
                </mxCell>
                <mxCell id="133174158999040" value="" style="whiteSpace=wrap;rounded=0;fillColor=none;strokeColor=none;dashed=0;inherit=default;html=1;strokeWidth=0;" parent="1" vertex="1">
                    <mxGeometry y="40" as="geometry"/>
                </mxCell>
                <mxCell id="133174158999136" value="" style="whiteSpace=wrap;rounded=0;fillColor=none;strokeColor=none;dashed=0;inherit=default;html=1;strokeWidth=0;" parent="1" vertex="1">
                    <mxGeometry x="520" y="40" as="geometry"/>
                </mxCell>
                <mxCell id="133174158999280" style="edgeStyle=orthogonalEdgeStyle;orthogonalLoop=1;rounded=0;jettySize=auto;endArrow=none;" parent="1" source="133174158999136" target="133174158999040" edge="1">
                    <mxGeometry relative="1" as="geometry"/>
                </mxCell>
                <mxCell id="133174159164048" value="0" style="text;whiteSpace=wrap;rounded=0;dashed=0;inherit=default;" parent="1" vertex="1">
                    <mxGeometry x="-5" y="40" as="geometry"/>
                </mxCell>
                <mxCell id="133174159164240" value="1" style="text;whiteSpace=wrap;rounded=0;dashed=0;inherit=default;" parent="1" vertex="1">
                    <mxGeometry x="35" y="40" as="geometry"/>
                </mxCell>
                <mxCell id="133174159164432" value="2" style="text;whiteSpace=wrap;rounded=0;dashed=0;inherit=default;" parent="1" vertex="1">
                    <mxGeometry x="75" y="40" as="geometry"/>
                </mxCell>
                <mxCell id="133174159164624" value="3" style="text;whiteSpace=wrap;rounded=0;dashed=0;inherit=default;" parent="1" vertex="1">
                    <mxGeometry x="115" y="40" as="geometry"/>
                </mxCell>
                <mxCell id="133174159164816" value="4" style="text;whiteSpace=wrap;rounded=0;dashed=0;inherit=default;" parent="1" vertex="1">
                    <mxGeometry x="155" y="40" as="geometry"/>
                </mxCell>
                <mxCell id="133174159165008" value="5" style="text;whiteSpace=wrap;rounded=0;dashed=0;inherit=default;" parent="1" vertex="1">
                    <mxGeometry x="195" y="40" as="geometry"/>
                </mxCell>
                <mxCell id="133174159165200" value="6" style="text;whiteSpace=wrap;rounded=0;dashed=0;inherit=default;" parent="1" vertex="1">
                    <mxGeometry x="235" y="40" as="geometry"/>
                </mxCell>
                <mxCell id="133174159165392" value="7" style="text;whiteSpace=wrap;rounded=0;dashed=0;inherit=default;" parent="1" vertex="1">
                    <mxGeometry x="275" y="40" as="geometry"/>
                </mxCell>
                <mxCell id="133174159165584" value="8" style="text;whiteSpace=wrap;rounded=0;dashed=0;inherit=default;" parent="1" vertex="1">
                    <mxGeometry x="315" y="40" as="geometry"/>
                </mxCell>
                <mxCell id="133174159165776" value="9" style="text;whiteSpace=wrap;rounded=0;dashed=0;inherit=default;" parent="1" vertex="1">
                    <mxGeometry x="355" y="40" as="geometry"/>
                </mxCell>
                <mxCell id="133174159165968" value="10" style="text;whiteSpace=wrap;rounded=0;dashed=0;inherit=default;" parent="1" vertex="1">
                    <mxGeometry x="395" y="40" as="geometry"/>
                </mxCell>
                <mxCell id="133174159166160" value="11" style="text;whiteSpace=wrap;rounded=0;dashed=0;inherit=default;" parent="1" vertex="1">
                    <mxGeometry x="435" y="40" as="geometry"/>
                </mxCell>
                <mxCell id="133174159166352" value="12" style="text;whiteSpace=wrap;rounded=0;dashed=0;inherit=default;" parent="1" vertex="1">
                    <mxGeometry x="475" y="40" as="geometry"/>
                </mxCell>
                <mxCell id="133174159166544" value="13" style="text;whiteSpace=wrap;rounded=0;dashed=0;inherit=default;" parent="1" vertex="1">
                    <mxGeometry x="515" y="40" as="geometry"/>
                </mxCell>
                <mxCell id="133174159166688" value="$$\tau_1: T=0, C=[1,3]$$" style="text;whiteSpace=wrap;rounded=0;dashed=0;inherit=default;" parent="1" vertex="1">
                    <mxGeometry x="-160" y="15" width="120" height="40" as="geometry"/>
                </mxCell>
                <mxCell id="133174158997600" value="" style="whiteSpace=wrap;rounded=0;fillColor=#dae8fc;strokeColor=#6c8ebf;dashed=0;inherit=default;html=1;strokeWidth=0;" parent="1" vertex="1">
                    <mxGeometry x="160" y="20" width="120" height="20" as="geometry"/>
                </mxCell>
                <mxCell id="133174159166976" value="" style="whiteSpace=wrap;rounded=0;fillColor=none;strokeColor=none;dashed=0;inherit=default;html=1;strokeWidth=0;" parent="1" vertex="1">
                    <mxGeometry x="160" as="geometry"/>
                </mxCell>
                <mxCell id="133174159167312" value="" style="whiteSpace=wrap;rounded=0;fillColor=none;strokeColor=none;dashed=0;inherit=default;html=1;strokeWidth=0;" parent="1" vertex="1">
                    <mxGeometry x="160" y="40" as="geometry"/>
                </mxCell>
                <mxCell id="133174159167456" style="edgeStyle=orthogonalEdgeStyle;orthogonalLoop=1;rounded=0;jettySize=auto;" parent="1" source="133174159167312" target="133174159166976" edge="1">
                    <mxGeometry relative="1" as="geometry"/>
                </mxCell>
                <mxCell id="133174159167504" value="" style="whiteSpace=wrap;rounded=0;fillColor=none;strokeColor=none;dashed=0;inherit=default;html=1;strokeWidth=0;" parent="1" vertex="1">
                    <mxGeometry x="200" as="geometry"/>
                </mxCell>
                <mxCell id="133174159168224" value="" style="whiteSpace=wrap;rounded=0;fillColor=none;strokeColor=none;dashed=0;inherit=default;html=1;strokeWidth=0;" parent="1" vertex="1">
                    <mxGeometry x="200" y="40" as="geometry"/>
                </mxCell>
                <mxCell id="133174159168368" style="edgeStyle=orthogonalEdgeStyle;orthogonalLoop=1;rounded=0;jettySize=auto;endArrow=classic;endFill=0;" parent="1" source="133174159168224" target="133174159167504" edge="1">
                    <mxGeometry relative="1" as="geometry"/>
                </mxCell>
                <mxCell id="133174159169040" value="" style="whiteSpace=wrap;rounded=0;dashed=0;inherit=default;" parent="1" vertex="1">
                    <mxGeometry x="160" y="20" as="geometry"/>
                </mxCell>
                <mxCell id="133174159169328" value="" style="whiteSpace=wrap;rounded=0;dashed=0;inherit=default;" parent="1" vertex="1">
                    <mxGeometry x="200" y="20" as="geometry"/>
                </mxCell>
                <mxCell id="133174159169472" style="edgeStyle=orthogonalEdgeStyle;orthogonalLoop=1;rounded=0;jettySize=auto;endArrow=none;strokeWidth=2;" parent="1" source="133174159169040" target="133174159169328" edge="1">
                    <mxGeometry relative="1" as="geometry"/>
                </mxCell>
                <mxCell id="133174159169520" value="" style="whiteSpace=wrap;rounded=0;fillColor=#f8cecc;strokeColor=#b85450;dashed=0;inherit=default;html=1;strokeWidth=0;" parent="1" vertex="1">
                    <mxGeometry y="100" width="80" height="20" as="geometry"/>
                </mxCell>
                <mxCell id="133174159170096" value="" style="whiteSpace=wrap;rounded=0;fillColor=none;strokeColor=none;dashed=0;inherit=default;html=1;strokeWidth=0;" parent="1" vertex="1">
                    <mxGeometry y="80" as="geometry"/>
                </mxCell>
                <mxCell id="133174160029168" value="" style="whiteSpace=wrap;rounded=0;fillColor=none;strokeColor=none;dashed=0;inherit=default;html=1;strokeWidth=0;" parent="1" vertex="1">
                    <mxGeometry y="120" as="geometry"/>
                </mxCell>
                <mxCell id="133174158996160" style="edgeStyle=orthogonalEdgeStyle;orthogonalLoop=1;rounded=0;jettySize=auto;" parent="1" source="133174160029168" target="133174159170096" edge="1">
                    <mxGeometry relative="1" as="geometry"/>
                </mxCell>
                <mxCell id="133174158994480" value="" style="whiteSpace=wrap;rounded=0;fillColor=none;strokeColor=none;dashed=0;inherit=default;html=1;strokeWidth=0;" parent="1" vertex="1">
                    <mxGeometry y="120" as="geometry"/>
                </mxCell>
                <mxCell id="133174158994192" value="" style="whiteSpace=wrap;rounded=0;fillColor=none;strokeColor=none;dashed=0;inherit=default;html=1;strokeWidth=0;" parent="1" vertex="1">
                    <mxGeometry x="520" y="120" as="geometry"/>
                </mxCell>
                <mxCell id="133174158994144" style="edgeStyle=orthogonalEdgeStyle;orthogonalLoop=1;rounded=0;jettySize=auto;endArrow=none;" parent="1" source="133174158994192" target="133174158994480" edge="1">
                    <mxGeometry relative="1" as="geometry"/>
                </mxCell>
                <mxCell id="133174159170960" value="0" style="text;whiteSpace=wrap;rounded=0;dashed=0;inherit=default;" parent="1" vertex="1">
                    <mxGeometry x="-5" y="120" as="geometry"/>
                </mxCell>
                <mxCell id="133174159171152" value="1" style="text;whiteSpace=wrap;rounded=0;dashed=0;inherit=default;" parent="1" vertex="1">
                    <mxGeometry x="35" y="120" as="geometry"/>
                </mxCell>
                <mxCell id="133174159171344" value="2" style="text;whiteSpace=wrap;rounded=0;dashed=0;inherit=default;" parent="1" vertex="1">
                    <mxGeometry x="75" y="120" as="geometry"/>
                </mxCell>
                <mxCell id="133174159171536" value="3" style="text;whiteSpace=wrap;rounded=0;dashed=0;inherit=default;" parent="1" vertex="1">
                    <mxGeometry x="115" y="120" as="geometry"/>
                </mxCell>
                <mxCell id="133174159171728" value="4" style="text;whiteSpace=wrap;rounded=0;dashed=0;inherit=default;" parent="1" vertex="1">
                    <mxGeometry x="155" y="120" as="geometry"/>
                </mxCell>
                <mxCell id="133174159171920" value="5" style="text;whiteSpace=wrap;rounded=0;dashed=0;inherit=default;" parent="1" vertex="1">
                    <mxGeometry x="195" y="120" as="geometry"/>
                </mxCell>
                <mxCell id="133174159172112" value="6" style="text;whiteSpace=wrap;rounded=0;dashed=0;inherit=default;" parent="1" vertex="1">
                    <mxGeometry x="235" y="120" as="geometry"/>
                </mxCell>
                <mxCell id="133174159172304" value="7" style="text;whiteSpace=wrap;rounded=0;dashed=0;inherit=default;" parent="1" vertex="1">
                    <mxGeometry x="275" y="120" as="geometry"/>
                </mxCell>
                <mxCell id="133174159172496" value="8" style="text;whiteSpace=wrap;rounded=0;dashed=0;inherit=default;" parent="1" vertex="1">
                    <mxGeometry x="315" y="120" as="geometry"/>
                </mxCell>
                <mxCell id="133174159172688" value="9" style="text;whiteSpace=wrap;rounded=0;dashed=0;inherit=default;" parent="1" vertex="1">
                    <mxGeometry x="355" y="120" as="geometry"/>
                </mxCell>
                <mxCell id="133174159172880" value="10" style="text;whiteSpace=wrap;rounded=0;dashed=0;inherit=default;" parent="1" vertex="1">
                    <mxGeometry x="395" y="120" as="geometry"/>
                </mxCell>
                <mxCell id="133174159173072" value="11" style="text;whiteSpace=wrap;rounded=0;dashed=0;inherit=default;" parent="1" vertex="1">
                    <mxGeometry x="435" y="120" as="geometry"/>
                </mxCell>
                <mxCell id="133174159173264" value="12" style="text;whiteSpace=wrap;rounded=0;dashed=0;inherit=default;" parent="1" vertex="1">
                    <mxGeometry x="475" y="120" as="geometry"/>
                </mxCell>
                <mxCell id="133174159173456" value="13" style="text;whiteSpace=wrap;rounded=0;dashed=0;inherit=default;" parent="1" vertex="1">
                    <mxGeometry x="515" y="120" as="geometry"/>
                </mxCell>
                <mxCell id="133174159173600" value="$$\tau_2: T=0, C=[1,2]$$" style="text;whiteSpace=wrap;rounded=0;dashed=0;inherit=default;" parent="1" vertex="1">
                    <mxGeometry x="-160" y="95" width="120" height="40" as="geometry"/>
                </mxCell>
                <mxCell id="133174159173840" value="" style="whiteSpace=wrap;rounded=0;fillColor=#f8cecc;strokeColor=#b85450;dashed=0;inherit=default;html=1;strokeWidth=0;" parent="1" vertex="1">
                    <mxGeometry x="80" y="180" width="400" height="20" as="geometry"/>
                </mxCell>
                <mxCell id="133174159173792" value="" style="whiteSpace=wrap;rounded=0;fillColor=none;strokeColor=none;dashed=0;inherit=default;html=1;strokeWidth=0;" parent="1" vertex="1">
                    <mxGeometry x="80" y="160" as="geometry"/>
                </mxCell>
                <mxCell id="133174159174272" value="" style="whiteSpace=wrap;rounded=0;fillColor=none;strokeColor=none;dashed=0;inherit=default;html=1;strokeWidth=0;" parent="1" vertex="1">
                    <mxGeometry x="80" y="200" as="geometry"/>
                </mxCell>
                <mxCell id="133174159174416" style="edgeStyle=orthogonalEdgeStyle;orthogonalLoop=1;rounded=0;jettySize=auto;" parent="1" source="133174159174272" target="133174159173792" edge="1">
                    <mxGeometry relative="1" as="geometry"/>
                </mxCell>
                <mxCell id="133174159174464" value="" style="whiteSpace=wrap;rounded=0;fillColor=none;strokeColor=none;dashed=0;inherit=default;html=1;strokeWidth=0;" parent="1" vertex="1">
                    <mxGeometry x="200" y="160" as="geometry"/>
                </mxCell>
                <mxCell id="133174159175184" value="" style="whiteSpace=wrap;rounded=0;fillColor=none;strokeColor=none;dashed=0;inherit=default;html=1;strokeWidth=0;" parent="1" vertex="1">
                    <mxGeometry x="200" y="200" as="geometry"/>
                </mxCell>
                <mxCell id="133174159175328" style="edgeStyle=orthogonalEdgeStyle;orthogonalLoop=1;rounded=0;jettySize=auto;endArrow=classic;endFill=0;" parent="1" source="133174159175184" target="133174159174464" edge="1">
                    <mxGeometry relative="1" as="geometry"/>
                </mxCell>
                <mxCell id="133174159175952" value="" style="whiteSpace=wrap;rounded=0;dashed=0;inherit=default;" parent="1" vertex="1">
                    <mxGeometry x="80" y="180" as="geometry"/>
                </mxCell>
                <mxCell id="133174159176240" value="" style="whiteSpace=wrap;rounded=0;dashed=0;inherit=default;" parent="1" vertex="1">
                    <mxGeometry x="200" y="180" as="geometry"/>
                </mxCell>
                <mxCell id="133174159176384" style="edgeStyle=orthogonalEdgeStyle;orthogonalLoop=1;rounded=0;jettySize=auto;endArrow=none;strokeWidth=2;" parent="1" source="133174159175952" target="133174159176240" edge="1">
                    <mxGeometry relative="1" as="geometry"/>
                </mxCell>
                <mxCell id="133174159176432" value="" style="whiteSpace=wrap;rounded=0;fillColor=none;strokeColor=none;dashed=0;inherit=default;html=1;strokeWidth=0;" parent="1" vertex="1">
                    <mxGeometry y="200" as="geometry"/>
                </mxCell>
                <mxCell id="133174159176912" value="" style="whiteSpace=wrap;rounded=0;fillColor=none;strokeColor=none;dashed=0;inherit=default;html=1;strokeWidth=0;" parent="1" vertex="1">
                    <mxGeometry x="520" y="200" as="geometry"/>
                </mxCell>
                <mxCell id="133174159177056" style="edgeStyle=orthogonalEdgeStyle;orthogonalLoop=1;rounded=0;jettySize=auto;endArrow=none;" parent="1" source="133174159176912" target="133174159176432" edge="1">
                    <mxGeometry relative="1" as="geometry"/>
                </mxCell>
                <mxCell id="133174159177824" value="0" style="text;whiteSpace=wrap;rounded=0;dashed=0;inherit=default;" parent="1" vertex="1">
                    <mxGeometry x="-5" y="200" as="geometry"/>
                </mxCell>
                <mxCell id="133174159177968" value="1" style="text;whiteSpace=wrap;rounded=0;dashed=0;inherit=default;" parent="1" vertex="1">
                    <mxGeometry x="35" y="200" as="geometry"/>
                </mxCell>
                <mxCell id="133174159178160" value="2" style="text;whiteSpace=wrap;rounded=0;dashed=0;inherit=default;" parent="1" vertex="1">
                    <mxGeometry x="75" y="200" as="geometry"/>
                </mxCell>
                <mxCell id="133174159178352" value="3" style="text;whiteSpace=wrap;rounded=0;dashed=0;inherit=default;" parent="1" vertex="1">
                    <mxGeometry x="115" y="200" as="geometry"/>
                </mxCell>
                <mxCell id="133174159178544" value="4" style="text;whiteSpace=wrap;rounded=0;dashed=0;inherit=default;" parent="1" vertex="1">
                    <mxGeometry x="155" y="200" as="geometry"/>
                </mxCell>
                <mxCell id="133174159178736" value="5" style="text;whiteSpace=wrap;rounded=0;dashed=0;inherit=default;" parent="1" vertex="1">
                    <mxGeometry x="195" y="200" as="geometry"/>
                </mxCell>
                <mxCell id="133174159178928" value="6" style="text;whiteSpace=wrap;rounded=0;dashed=0;inherit=default;" parent="1" vertex="1">
                    <mxGeometry x="235" y="200" as="geometry"/>
                </mxCell>
                <mxCell id="133174159179120" value="7" style="text;whiteSpace=wrap;rounded=0;dashed=0;inherit=default;" parent="1" vertex="1">
                    <mxGeometry x="275" y="200" as="geometry"/>
                </mxCell>
                <mxCell id="133174159179312" value="8" style="text;whiteSpace=wrap;rounded=0;dashed=0;inherit=default;" parent="1" vertex="1">
                    <mxGeometry x="315" y="200" as="geometry"/>
                </mxCell>
                <mxCell id="133174159179504" value="9" style="text;whiteSpace=wrap;rounded=0;dashed=0;inherit=default;" parent="1" vertex="1">
                    <mxGeometry x="355" y="200" as="geometry"/>
                </mxCell>
                <mxCell id="133174159179696" value="10" style="text;whiteSpace=wrap;rounded=0;dashed=0;inherit=default;" parent="1" vertex="1">
                    <mxGeometry x="395" y="200" as="geometry"/>
                </mxCell>
                <mxCell id="133174159261872" value="11" style="text;whiteSpace=wrap;rounded=0;dashed=0;inherit=default;" parent="1" vertex="1">
                    <mxGeometry x="435" y="200" as="geometry"/>
                </mxCell>
                <mxCell id="133174159262064" value="12" style="text;whiteSpace=wrap;rounded=0;dashed=0;inherit=default;" parent="1" vertex="1">
                    <mxGeometry x="475" y="200" as="geometry"/>
                </mxCell>
                <mxCell id="133174159262256" value="13" style="text;whiteSpace=wrap;rounded=0;dashed=0;inherit=default;" parent="1" vertex="1">
                    <mxGeometry x="515" y="200" as="geometry"/>
                </mxCell>
                <mxCell id="133174159262400" value="$$\tau_3: T=0, C=[10,10]$$" style="text;whiteSpace=wrap;rounded=0;dashed=0;inherit=default;" parent="1" vertex="1">
                    <mxGeometry x="-160" y="175" width="120" height="40" as="geometry"/>
                </mxCell>
            </root>
        </mxGraphModel>
    </diagram>
</mxfile>